<?xml version="1.0" encoding="UTF-8"?>
<svg xmlns="http://www.w3.org/2000/svg" xmlns:xlink="http://www.w3.org/1999/xlink" width="52px" height="52px" viewBox="0 0 52 52" version="1.1">
<g id="surface482194">
<path style=" stroke:none;fill-rule:nonzero;fill:rgb(2.745098%,56.862745%,7.843137%);fill-opacity:1;" d="M 25.6875 0 C 25 0.078125 24.359375 0.382812 23.875 0.875 L 1.0625 23.6875 C -0.109375 24.859375 -0.109375 26.765625 1.0625 27.9375 C 2.234375 29.109375 4.140625 29.109375 5.3125 27.9375 L 5.9375 27.3125 C 6.515625 27.789062 7.25 28.039062 8 28 L 44 28 C 44.734375 28 45.445312 27.734375 46 27.25 L 46.6875 27.9375 C 47.859375 29.109375 49.765625 29.109375 50.9375 27.9375 C 52.109375 26.765625 52.109375 24.859375 50.9375 23.6875 L 28.125 0.875 C 27.484375 0.226562 26.59375 -0.09375 25.6875 0 Z M 30.625 11.9375 L 32.75 14 L 19.25 14 L 21.25 12 C 21.5 12.03125 21.75 12.03125 22 12 L 30 12 C 30.210938 12 30.421875 11.976562 30.625 11.9375 Z M 38.625 19.9375 L 40.75 22 L 11.25 22 L 13.25 20 C 13.5 20.03125 13.75 20.03125 14 20 L 38 20 C 38.210938 20 38.421875 19.976562 38.625 19.9375 Z M 5.375 30 C 3.71875 30.171875 2.515625 31.65625 2.6875 33.3125 C 2.859375 34.96875 4.34375 36.171875 6 36 L 16 36 L 16 38 L 6 38 C 5.898438 37.992188 5.789062 37.992188 5.6875 38 C 5.585938 37.992188 5.476562 37.992188 5.375 38 C 3.71875 38.171875 2.515625 39.65625 2.6875 41.3125 C 2.859375 42.96875 4.34375 44.171875 6 44 L 16 44 L 16 46 L 6 46 C 5.898438 45.992188 5.789062 45.992188 5.6875 46 C 5.585938 45.992188 5.476562 45.992188 5.375 46 C 3.71875 46.171875 2.515625 47.65625 2.6875 49.3125 C 2.859375 50.96875 4.34375 52.171875 6 52 L 17 52 C 17.148438 51.992188 17.296875 51.96875 17.4375 51.9375 C 17.460938 51.9375 17.476562 51.9375 17.5 51.9375 C 17.664062 51.976562 17.828125 52 18 52 L 34 52 C 34.0625 52 34.125 52 34.1875 52 C 34.210938 52 34.226562 52 34.25 52 C 34.5 52.03125 34.75 52.03125 35 52 L 46 52 C 47.078125 52.015625 48.085938 51.445312 48.632812 50.515625 C 49.179688 49.578125 49.179688 48.421875 48.632812 47.484375 C 48.085938 46.554688 47.078125 45.984375 46 46 L 36 46 L 36 44 L 46 44 C 47.078125 44.015625 48.085938 43.445312 48.632812 42.515625 C 49.179688 41.578125 49.179688 40.421875 48.632812 39.484375 C 48.085938 38.554688 47.078125 37.984375 46 38 L 36 38 L 36 36 L 46 36 C 47.078125 36.015625 48.085938 35.445312 48.632812 34.515625 C 49.179688 33.578125 49.179688 32.421875 48.632812 31.484375 C 48.085938 30.554688 47.078125 29.984375 46 30 L 35 30 C 34.898438 29.992188 34.789062 29.992188 34.6875 30 C 34.585938 29.992188 34.476562 29.992188 34.375 30 C 34.351562 30 34.335938 30 34.3125 30 C 34.210938 29.992188 34.101562 29.992188 34 30 L 18 30 C 17.9375 30 17.875 30 17.8125 30 C 17.75 30 17.6875 30 17.625 30 C 17.585938 30.015625 17.539062 30.039062 17.5 30.0625 C 17.476562 30.0625 17.460938 30.0625 17.4375 30.0625 C 17.296875 30.03125 17.148438 30.007812 17 30 L 6 30 C 5.898438 29.992188 5.789062 29.992188 5.6875 30 C 5.585938 29.992188 5.476562 29.992188 5.375 30 Z M 20 34 L 31.8125 34 C 31.867188 34.132812 31.929688 34.257812 32 34.375 L 32 39.625 C 31.554688 40.492188 31.554688 41.507812 32 42.375 L 32 47.625 C 31.953125 47.75 31.90625 47.875 31.875 48 L 20 48 L 20 41.5625 C 20.046875 41.25 20.046875 40.9375 20 40.625 C 20 40.539062 20 40.460938 20 40.375 Z M 20 34 "/>
</g>
</svg>
